<mxfile host="app.diagrams.net" agent="Mozilla/5.0 (Windows NT 10.0; Win64; x64) AppleWebKit/537.36 (KHTML, like Gecko) Chrome/130.0.0.0 Safari/537.36" version="24.8.3">
  <diagram name="Page-1" id="yv1i9N5qnGL781ZR2nzH">
    <mxGraphModel dx="794" dy="446" grid="1" gridSize="10" guides="1" tooltips="1" connect="1" arrows="1" fold="1" page="1" pageScale="1" pageWidth="827" pageHeight="1169" math="0" shadow="0">
      <root>
        <mxCell id="0" />
        <mxCell id="1" parent="0" />
        <mxCell id="GdvHhKEwkIhD9bUmo9Ea-1" value="Mulai" style="rounded=1;whiteSpace=wrap;arcSize=50;strokeWidth=2;" vertex="1" parent="1">
          <mxGeometry x="630" y="20" width="62" height="34" as="geometry" />
        </mxCell>
        <mxCell id="GdvHhKEwkIhD9bUmo9Ea-2" value="Inisialisasi Serial pada baud rate 115200" style="whiteSpace=wrap;strokeWidth=2;" vertex="1" parent="1">
          <mxGeometry x="532" y="104" width="257" height="66" as="geometry" />
        </mxCell>
        <mxCell id="GdvHhKEwkIhD9bUmo9Ea-3" value="Inisialisasi pin GPIO 5 dan 4 sebagai OUTPUT, set ke LOW" style="whiteSpace=wrap;strokeWidth=2;" vertex="1" parent="1">
          <mxGeometry x="532" y="220" width="257" height="84" as="geometry" />
        </mxCell>
        <mxCell id="GdvHhKEwkIhD9bUmo9Ea-4" value="Inisialisasi WiFiManager" style="whiteSpace=wrap;strokeWidth=2;" vertex="1" parent="1">
          <mxGeometry x="547" y="354" width="228" height="49" as="geometry" />
        </mxCell>
        <mxCell id="GdvHhKEwkIhD9bUmo9Ea-5" value="Hubungkan ke Wi-Fi menggunakan WiFiManager" style="whiteSpace=wrap;strokeWidth=2;" vertex="1" parent="1">
          <mxGeometry x="534" y="452" width="254" height="66" as="geometry" />
        </mxCell>
        <mxCell id="GdvHhKEwkIhD9bUmo9Ea-6" value="Koneksi Wi-Fi berhasil?" style="rhombus;strokeWidth=2;whiteSpace=wrap;" vertex="1" parent="1">
          <mxGeometry x="555" y="569" width="212" height="212" as="geometry" />
        </mxCell>
        <mxCell id="GdvHhKEwkIhD9bUmo9Ea-7" value="Masuk ke mode akses untuk konfigurasi" style="whiteSpace=wrap;strokeWidth=2;" vertex="1" parent="1">
          <mxGeometry x="379" y="853" width="259" height="66" as="geometry" />
        </mxCell>
        <mxCell id="GdvHhKEwkIhD9bUmo9Ea-8" value="Print Connected dan mulai web server" style="whiteSpace=wrap;strokeWidth=2;" vertex="1" parent="1">
          <mxGeometry x="688" y="853" width="251" height="66" as="geometry" />
        </mxCell>
        <mxCell id="GdvHhKEwkIhD9bUmo9Ea-9" value="Loop untuk mendengarkan klien" style="whiteSpace=wrap;strokeWidth=2;" vertex="1" parent="1">
          <mxGeometry x="688" y="969" width="249" height="66" as="geometry" />
        </mxCell>
        <mxCell id="GdvHhKEwkIhD9bUmo9Ea-10" value="Ada Klien Baru?" style="rhombus;strokeWidth=2;whiteSpace=wrap;" vertex="1" parent="1">
          <mxGeometry x="454" y="1108" width="160" height="160" as="geometry" />
        </mxCell>
        <mxCell id="GdvHhKEwkIhD9bUmo9Ea-11" value="Print New Client di serial" style="whiteSpace=wrap;strokeWidth=2;" vertex="1" parent="1">
          <mxGeometry x="414" y="1341" width="239" height="49" as="geometry" />
        </mxCell>
        <mxCell id="GdvHhKEwkIhD9bUmo9Ea-12" value="Inisialisasi string currentLine" style="whiteSpace=wrap;strokeWidth=2;" vertex="1" parent="1">
          <mxGeometry x="445" y="1440" width="178" height="66" as="geometry" />
        </mxCell>
        <mxCell id="GdvHhKEwkIhD9bUmo9Ea-13" value="Klien terhubung?" style="rhombus;strokeWidth=2;whiteSpace=wrap;" vertex="1" parent="1">
          <mxGeometry x="450" y="1556" width="169" height="169" as="geometry" />
        </mxCell>
        <mxCell id="GdvHhKEwkIhD9bUmo9Ea-14" value="Ada data dari klien?" style="rhombus;strokeWidth=2;whiteSpace=wrap;" vertex="1" parent="1">
          <mxGeometry x="438" y="1797" width="192" height="192" as="geometry" />
        </mxCell>
        <mxCell id="GdvHhKEwkIhD9bUmo9Ea-15" value="Baca karakter dari klien" style="whiteSpace=wrap;strokeWidth=2;" vertex="1" parent="1">
          <mxGeometry x="418" y="2062" width="232" height="49" as="geometry" />
        </mxCell>
        <mxCell id="GdvHhKEwkIhD9bUmo9Ea-16" value="Karakter newline?" style="rhombus;strokeWidth=2;whiteSpace=wrap;" vertex="1" parent="1">
          <mxGeometry x="445" y="2183" width="177" height="177" as="geometry" />
        </mxCell>
        <mxCell id="GdvHhKEwkIhD9bUmo9Ea-17" value="CurrentLine kosong?" style="rhombus;strokeWidth=2;whiteSpace=wrap;" vertex="1" parent="1">
          <mxGeometry x="438" y="2433" width="193" height="193" as="geometry" />
        </mxCell>
        <mxCell id="GdvHhKEwkIhD9bUmo9Ea-18" value="Clear currentLine" style="whiteSpace=wrap;strokeWidth=2;" vertex="1" parent="1">
          <mxGeometry x="320" y="2698" width="186" height="49" as="geometry" />
        </mxCell>
        <mxCell id="GdvHhKEwkIhD9bUmo9Ea-19" value="Kirim respons HTTP" style="whiteSpace=wrap;strokeWidth=2;" vertex="1" parent="1">
          <mxGeometry x="555" y="2698" width="199" height="49" as="geometry" />
        </mxCell>
        <mxCell id="GdvHhKEwkIhD9bUmo9Ea-20" value="Periksa permintaan GET untuk GPIO" style="rhombus;strokeWidth=2;whiteSpace=wrap;" vertex="1" parent="1">
          <mxGeometry x="536" y="2797" width="238" height="238" as="geometry" />
        </mxCell>
        <mxCell id="GdvHhKEwkIhD9bUmo9Ea-21" value="Nyalakan GPIO 5, set output5State ke on" style="whiteSpace=wrap;strokeWidth=2;" vertex="1" parent="1">
          <mxGeometry x="20" y="3107" width="210" height="66" as="geometry" />
        </mxCell>
        <mxCell id="GdvHhKEwkIhD9bUmo9Ea-22" value="Matikan GPIO 5, set output5State ke off" style="whiteSpace=wrap;strokeWidth=2;" vertex="1" parent="1">
          <mxGeometry x="280" y="3107" width="202" height="66" as="geometry" />
        </mxCell>
        <mxCell id="GdvHhKEwkIhD9bUmo9Ea-23" value="Nyalakan GPIO 4, set output4State ke on" style="whiteSpace=wrap;strokeWidth=2;" vertex="1" parent="1">
          <mxGeometry x="533" y="3107" width="210" height="66" as="geometry" />
        </mxCell>
        <mxCell id="GdvHhKEwkIhD9bUmo9Ea-24" value="Matikan GPIO 4, set output4State ke off" style="whiteSpace=wrap;strokeWidth=2;" vertex="1" parent="1">
          <mxGeometry x="793" y="3107" width="202" height="66" as="geometry" />
        </mxCell>
        <mxCell id="GdvHhKEwkIhD9bUmo9Ea-25" value="Kirim halaman HTML ke klien" style="whiteSpace=wrap;strokeWidth=2;" vertex="1" parent="1">
          <mxGeometry x="643" y="3223" width="228" height="66" as="geometry" />
        </mxCell>
        <mxCell id="GdvHhKEwkIhD9bUmo9Ea-26" value="Close connection" style="whiteSpace=wrap;strokeWidth=2;" vertex="1" parent="1">
          <mxGeometry x="895" y="3340" width="182" height="49" as="geometry" />
        </mxCell>
        <mxCell id="GdvHhKEwkIhD9bUmo9Ea-27" value="" style="curved=1;startArrow=none;endArrow=block;exitX=0.5;exitY=0.99;entryX=0.5;entryY=-0.01;rounded=0;" edge="1" parent="1" source="GdvHhKEwkIhD9bUmo9Ea-1" target="GdvHhKEwkIhD9bUmo9Ea-2">
          <mxGeometry relative="1" as="geometry">
            <Array as="points" />
          </mxGeometry>
        </mxCell>
        <mxCell id="GdvHhKEwkIhD9bUmo9Ea-28" value="" style="curved=1;startArrow=none;endArrow=block;exitX=0.5;exitY=1;entryX=0.5;entryY=0;rounded=0;" edge="1" parent="1" source="GdvHhKEwkIhD9bUmo9Ea-2" target="GdvHhKEwkIhD9bUmo9Ea-3">
          <mxGeometry relative="1" as="geometry">
            <Array as="points" />
          </mxGeometry>
        </mxCell>
        <mxCell id="GdvHhKEwkIhD9bUmo9Ea-29" value="" style="curved=1;startArrow=none;endArrow=block;exitX=0.5;exitY=1;entryX=0.5;entryY=0;rounded=0;" edge="1" parent="1" source="GdvHhKEwkIhD9bUmo9Ea-3" target="GdvHhKEwkIhD9bUmo9Ea-4">
          <mxGeometry relative="1" as="geometry">
            <Array as="points" />
          </mxGeometry>
        </mxCell>
        <mxCell id="GdvHhKEwkIhD9bUmo9Ea-30" value="" style="curved=1;startArrow=none;endArrow=block;exitX=0.5;exitY=0.99;entryX=0.5;entryY=0.01;rounded=0;" edge="1" parent="1" source="GdvHhKEwkIhD9bUmo9Ea-4" target="GdvHhKEwkIhD9bUmo9Ea-5">
          <mxGeometry relative="1" as="geometry">
            <Array as="points" />
          </mxGeometry>
        </mxCell>
        <mxCell id="GdvHhKEwkIhD9bUmo9Ea-31" value="" style="curved=1;startArrow=none;endArrow=block;exitX=0.5;exitY=1.01;entryX=0.5;entryY=0;rounded=0;" edge="1" parent="1" source="GdvHhKEwkIhD9bUmo9Ea-5" target="GdvHhKEwkIhD9bUmo9Ea-6">
          <mxGeometry relative="1" as="geometry">
            <Array as="points" />
          </mxGeometry>
        </mxCell>
        <mxCell id="GdvHhKEwkIhD9bUmo9Ea-32" value="Tidak" style="curved=1;startArrow=none;endArrow=block;exitX=0;exitY=0.96;entryX=0.5;entryY=0;rounded=0;" edge="1" parent="1" source="GdvHhKEwkIhD9bUmo9Ea-6" target="GdvHhKEwkIhD9bUmo9Ea-7">
          <mxGeometry relative="1" as="geometry">
            <Array as="points">
              <mxPoint x="509" y="817" />
            </Array>
          </mxGeometry>
        </mxCell>
        <mxCell id="GdvHhKEwkIhD9bUmo9Ea-33" value="Ya" style="curved=1;startArrow=none;endArrow=block;exitX=1;exitY=0.96;entryX=0.5;entryY=0;rounded=0;" edge="1" parent="1" source="GdvHhKEwkIhD9bUmo9Ea-6" target="GdvHhKEwkIhD9bUmo9Ea-8">
          <mxGeometry relative="1" as="geometry">
            <Array as="points">
              <mxPoint x="813" y="817" />
            </Array>
          </mxGeometry>
        </mxCell>
        <mxCell id="GdvHhKEwkIhD9bUmo9Ea-34" value="" style="curved=1;startArrow=none;endArrow=block;exitX=0.5;exitY=1.01;entryX=0.5;entryY=0.01;rounded=0;" edge="1" parent="1" source="GdvHhKEwkIhD9bUmo9Ea-8" target="GdvHhKEwkIhD9bUmo9Ea-9">
          <mxGeometry relative="1" as="geometry">
            <Array as="points" />
          </mxGeometry>
        </mxCell>
        <mxCell id="GdvHhKEwkIhD9bUmo9Ea-35" value="" style="curved=1;startArrow=none;endArrow=block;exitX=0;exitY=0.95;entryX=0.41;entryY=0;rounded=0;" edge="1" parent="1" source="GdvHhKEwkIhD9bUmo9Ea-9" target="GdvHhKEwkIhD9bUmo9Ea-10">
          <mxGeometry relative="1" as="geometry">
            <Array as="points">
              <mxPoint x="513" y="1072" />
            </Array>
          </mxGeometry>
        </mxCell>
        <mxCell id="GdvHhKEwkIhD9bUmo9Ea-36" value="Tidak" style="curved=1;startArrow=none;endArrow=block;exitX=1;exitY=0.36;entryX=0.74;entryY=1.01;rounded=0;" edge="1" parent="1" source="GdvHhKEwkIhD9bUmo9Ea-10" target="GdvHhKEwkIhD9bUmo9Ea-9">
          <mxGeometry relative="1" as="geometry">
            <Array as="points">
              <mxPoint x="938" y="1072" />
            </Array>
          </mxGeometry>
        </mxCell>
        <mxCell id="GdvHhKEwkIhD9bUmo9Ea-37" value="Ya" style="curved=1;startArrow=none;endArrow=block;exitX=0.5;exitY=1;entryX=0.5;entryY=0;rounded=0;" edge="1" parent="1" source="GdvHhKEwkIhD9bUmo9Ea-10" target="GdvHhKEwkIhD9bUmo9Ea-11">
          <mxGeometry relative="1" as="geometry">
            <Array as="points" />
          </mxGeometry>
        </mxCell>
        <mxCell id="GdvHhKEwkIhD9bUmo9Ea-38" value="" style="curved=1;startArrow=none;endArrow=block;exitX=0.5;exitY=1;entryX=0.5;entryY=0;rounded=0;" edge="1" parent="1" source="GdvHhKEwkIhD9bUmo9Ea-11" target="GdvHhKEwkIhD9bUmo9Ea-12">
          <mxGeometry relative="1" as="geometry">
            <Array as="points" />
          </mxGeometry>
        </mxCell>
        <mxCell id="GdvHhKEwkIhD9bUmo9Ea-39" value="" style="curved=1;startArrow=none;endArrow=block;exitX=0.5;exitY=1;entryX=0.5;entryY=0;rounded=0;" edge="1" parent="1" source="GdvHhKEwkIhD9bUmo9Ea-12" target="GdvHhKEwkIhD9bUmo9Ea-13">
          <mxGeometry relative="1" as="geometry">
            <Array as="points" />
          </mxGeometry>
        </mxCell>
        <mxCell id="GdvHhKEwkIhD9bUmo9Ea-40" value="Ya" style="curved=1;startArrow=none;endArrow=block;exitX=0.39;exitY=1;entryX=0.4;entryY=0;rounded=0;" edge="1" parent="1" source="GdvHhKEwkIhD9bUmo9Ea-13" target="GdvHhKEwkIhD9bUmo9Ea-14">
          <mxGeometry relative="1" as="geometry">
            <Array as="points">
              <mxPoint x="508" y="1761" />
            </Array>
          </mxGeometry>
        </mxCell>
        <mxCell id="GdvHhKEwkIhD9bUmo9Ea-41" value="Tidak" style="curved=1;startArrow=none;endArrow=block;exitX=1;exitY=0.34;entryX=1;entryY=0.65;rounded=0;" edge="1" parent="1" source="GdvHhKEwkIhD9bUmo9Ea-14" target="GdvHhKEwkIhD9bUmo9Ea-13">
          <mxGeometry relative="1" as="geometry">
            <Array as="points">
              <mxPoint x="938" y="1761" />
            </Array>
          </mxGeometry>
        </mxCell>
        <mxCell id="GdvHhKEwkIhD9bUmo9Ea-42" value="Ya" style="curved=1;startArrow=none;endArrow=block;exitX=0.5;exitY=1;entryX=0.5;entryY=-0.01;rounded=0;" edge="1" parent="1" source="GdvHhKEwkIhD9bUmo9Ea-14" target="GdvHhKEwkIhD9bUmo9Ea-15">
          <mxGeometry relative="1" as="geometry">
            <Array as="points" />
          </mxGeometry>
        </mxCell>
        <mxCell id="GdvHhKEwkIhD9bUmo9Ea-43" value="" style="curved=1;startArrow=none;endArrow=block;exitX=0.46;exitY=0.99;entryX=0.42;entryY=0;rounded=0;" edge="1" parent="1" source="GdvHhKEwkIhD9bUmo9Ea-15" target="GdvHhKEwkIhD9bUmo9Ea-16">
          <mxGeometry relative="1" as="geometry">
            <Array as="points">
              <mxPoint x="513" y="2147" />
            </Array>
          </mxGeometry>
        </mxCell>
        <mxCell id="GdvHhKEwkIhD9bUmo9Ea-44" value="Tidak" style="curved=1;startArrow=none;endArrow=block;exitX=1;exitY=0.35;entryX=1;entryY=0.84;rounded=0;" edge="1" parent="1" source="GdvHhKEwkIhD9bUmo9Ea-16" target="GdvHhKEwkIhD9bUmo9Ea-15">
          <mxGeometry relative="1" as="geometry">
            <Array as="points">
              <mxPoint x="938" y="2147" />
            </Array>
          </mxGeometry>
        </mxCell>
        <mxCell id="GdvHhKEwkIhD9bUmo9Ea-45" value="Ya" style="curved=1;startArrow=none;endArrow=block;exitX=0.5;exitY=1;entryX=0.5;entryY=0;rounded=0;" edge="1" parent="1" source="GdvHhKEwkIhD9bUmo9Ea-16" target="GdvHhKEwkIhD9bUmo9Ea-17">
          <mxGeometry relative="1" as="geometry">
            <Array as="points" />
          </mxGeometry>
        </mxCell>
        <mxCell id="GdvHhKEwkIhD9bUmo9Ea-46" value="Tidak" style="curved=1;startArrow=none;endArrow=block;exitX=0.04;exitY=1;entryX=0.5;entryY=0;rounded=0;" edge="1" parent="1" source="GdvHhKEwkIhD9bUmo9Ea-17" target="GdvHhKEwkIhD9bUmo9Ea-18">
          <mxGeometry relative="1" as="geometry">
            <Array as="points">
              <mxPoint x="413" y="2662" />
            </Array>
          </mxGeometry>
        </mxCell>
        <mxCell id="GdvHhKEwkIhD9bUmo9Ea-47" value="Ya" style="curved=1;startArrow=none;endArrow=block;exitX=0.95;exitY=1;entryX=0.5;entryY=0;rounded=0;" edge="1" parent="1" source="GdvHhKEwkIhD9bUmo9Ea-17" target="GdvHhKEwkIhD9bUmo9Ea-19">
          <mxGeometry relative="1" as="geometry">
            <Array as="points">
              <mxPoint x="655" y="2662" />
            </Array>
          </mxGeometry>
        </mxCell>
        <mxCell id="GdvHhKEwkIhD9bUmo9Ea-48" value="" style="curved=1;startArrow=none;endArrow=block;exitX=0.5;exitY=1;entryX=0.5;entryY=0;rounded=0;" edge="1" parent="1" source="GdvHhKEwkIhD9bUmo9Ea-19" target="GdvHhKEwkIhD9bUmo9Ea-20">
          <mxGeometry relative="1" as="geometry">
            <Array as="points" />
          </mxGeometry>
        </mxCell>
        <mxCell id="GdvHhKEwkIhD9bUmo9Ea-49" value="GPIO 5 ON" style="curved=1;startArrow=none;endArrow=block;exitX=0;exitY=0.64;entryX=0.5;entryY=0;rounded=0;" edge="1" parent="1" source="GdvHhKEwkIhD9bUmo9Ea-20" target="GdvHhKEwkIhD9bUmo9Ea-21">
          <mxGeometry relative="1" as="geometry">
            <Array as="points">
              <mxPoint x="125" y="3071" />
            </Array>
          </mxGeometry>
        </mxCell>
        <mxCell id="GdvHhKEwkIhD9bUmo9Ea-50" value="GPIO 5 OFF" style="curved=1;startArrow=none;endArrow=block;exitX=0;exitY=0.78;entryX=0.5;entryY=0;rounded=0;" edge="1" parent="1" source="GdvHhKEwkIhD9bUmo9Ea-20" target="GdvHhKEwkIhD9bUmo9Ea-22">
          <mxGeometry relative="1" as="geometry">
            <Array as="points">
              <mxPoint x="382" y="3071" />
            </Array>
          </mxGeometry>
        </mxCell>
        <mxCell id="GdvHhKEwkIhD9bUmo9Ea-51" value="GPIO 4 ON" style="curved=1;startArrow=none;endArrow=block;exitX=0.44;exitY=1;entryX=0.5;entryY=0;rounded=0;" edge="1" parent="1" source="GdvHhKEwkIhD9bUmo9Ea-20" target="GdvHhKEwkIhD9bUmo9Ea-23">
          <mxGeometry relative="1" as="geometry">
            <Array as="points">
              <mxPoint x="638" y="3071" />
            </Array>
          </mxGeometry>
        </mxCell>
        <mxCell id="GdvHhKEwkIhD9bUmo9Ea-52" value="GPIO 4 OFF" style="curved=1;startArrow=none;endArrow=block;exitX=1;exitY=0.82;entryX=0.5;entryY=0;rounded=0;" edge="1" parent="1" source="GdvHhKEwkIhD9bUmo9Ea-20" target="GdvHhKEwkIhD9bUmo9Ea-24">
          <mxGeometry relative="1" as="geometry">
            <Array as="points">
              <mxPoint x="894" y="3071" />
            </Array>
          </mxGeometry>
        </mxCell>
        <mxCell id="GdvHhKEwkIhD9bUmo9Ea-53" value="" style="curved=1;startArrow=none;endArrow=block;exitX=0.5;exitY=1.01;entryX=0;entryY=0.35;rounded=0;" edge="1" parent="1" source="GdvHhKEwkIhD9bUmo9Ea-21" target="GdvHhKEwkIhD9bUmo9Ea-25">
          <mxGeometry relative="1" as="geometry">
            <Array as="points">
              <mxPoint x="125" y="3198" />
            </Array>
          </mxGeometry>
        </mxCell>
        <mxCell id="GdvHhKEwkIhD9bUmo9Ea-54" value="" style="curved=1;startArrow=none;endArrow=block;exitX=0.5;exitY=1.01;entryX=0;entryY=0.24;rounded=0;" edge="1" parent="1" source="GdvHhKEwkIhD9bUmo9Ea-22" target="GdvHhKEwkIhD9bUmo9Ea-25">
          <mxGeometry relative="1" as="geometry">
            <Array as="points">
              <mxPoint x="382" y="3198" />
            </Array>
          </mxGeometry>
        </mxCell>
        <mxCell id="GdvHhKEwkIhD9bUmo9Ea-55" value="" style="curved=1;startArrow=none;endArrow=block;exitX=0.5;exitY=1.01;entryX=0.2;entryY=0.01;rounded=0;" edge="1" parent="1" source="GdvHhKEwkIhD9bUmo9Ea-23" target="GdvHhKEwkIhD9bUmo9Ea-25">
          <mxGeometry relative="1" as="geometry">
            <Array as="points">
              <mxPoint x="638" y="3198" />
            </Array>
          </mxGeometry>
        </mxCell>
        <mxCell id="GdvHhKEwkIhD9bUmo9Ea-56" value="" style="curved=1;startArrow=none;endArrow=block;exitX=0.5;exitY=1.01;entryX=0.84;entryY=0.01;rounded=0;" edge="1" parent="1" source="GdvHhKEwkIhD9bUmo9Ea-24" target="GdvHhKEwkIhD9bUmo9Ea-25">
          <mxGeometry relative="1" as="geometry">
            <Array as="points">
              <mxPoint x="894" y="3198" />
            </Array>
          </mxGeometry>
        </mxCell>
        <mxCell id="GdvHhKEwkIhD9bUmo9Ea-57" value="" style="curved=1;startArrow=none;endArrow=block;exitX=0.5;exitY=1.01;entryX=0;entryY=0.09;rounded=0;" edge="1" parent="1" source="GdvHhKEwkIhD9bUmo9Ea-25" target="GdvHhKEwkIhD9bUmo9Ea-26">
          <mxGeometry relative="1" as="geometry">
            <Array as="points">
              <mxPoint x="757" y="3315" />
            </Array>
          </mxGeometry>
        </mxCell>
        <mxCell id="GdvHhKEwkIhD9bUmo9Ea-58" value="" style="curved=1;startArrow=none;endArrow=block;exitX=0.64;exitY=-0.01;entryX=0.93;entryY=1.01;rounded=0;" edge="1" parent="1" source="GdvHhKEwkIhD9bUmo9Ea-26" target="GdvHhKEwkIhD9bUmo9Ea-9">
          <mxGeometry relative="1" as="geometry">
            <Array as="points">
              <mxPoint x="1037" y="3315" />
              <mxPoint x="1037" y="1072" />
            </Array>
          </mxGeometry>
        </mxCell>
      </root>
    </mxGraphModel>
  </diagram>
</mxfile>
